<?xml version="1.0" encoding="UTF-8" standalone="no"?>
<!-- Created with Inkscape (http://www.inkscape.org/) -->

<svg
   xmlns:dc="http://purl.org/dc/elements/1.1/"
   xmlns:cc="http://creativecommons.org/ns#"
   xmlns:rdf="http://www.w3.org/1999/02/22-rdf-syntax-ns#"
   xmlns:svg="http://www.w3.org/2000/svg"
   xmlns="http://www.w3.org/2000/svg"
   xmlns:sodipodi="http://sodipodi.sourceforge.net/DTD/sodipodi-0.dtd"
   xmlns:inkscape="http://www.inkscape.org/namespaces/inkscape"
   width="120"
   height="120"
   viewBox="0 0 31.749999 31.750001"
   version="1.1"
   id="svg8"
   inkscape:version="0.92.4 (5da689c313, 2019-01-14)"
   sodipodi:docname="autoauto-manager-method.svg"
   inkscape:export-filename="C:\Users\coleh\AutoautoLanguagePlugin\AutoautoLanguagePlugin\src\main\resources\icons\autoauto-manager-method.png"
   inkscape:export-xdpi="204.8"
   inkscape:export-ydpi="204.8">
  <defs
     id="defs2" />
  <sodipodi:namedview
     id="base"
     pagecolor="#ffffff"
     bordercolor="#666666"
     borderopacity="1.0"
     inkscape:pageopacity="0"
     inkscape:pageshadow="2"
     inkscape:zoom="4.1660375"
     inkscape:cx="53.261534"
     inkscape:cy="17.407866"
     inkscape:document-units="mm"
     inkscape:current-layer="layer1"
     showgrid="true"
     units="px"
     inkscape:snap-page="true"
     inkscape:snap-bbox="true"
     inkscape:snap-bbox-midpoints="true"
     inkscape:bbox-nodes="true"
     inkscape:snap-global="true"
     inkscape:snap-grids="false"
     inkscape:snap-intersection-paths="true"
     inkscape:window-width="1920"
     inkscape:window-height="1017"
     inkscape:window-x="-8"
     inkscape:window-y="-8"
     inkscape:window-maximized="1"
     inkscape:pagecheckerboard="true"
     inkscape:object-paths="true"
     inkscape:bbox-paths="true"
     inkscape:snap-midpoints="true"
     inkscape:snap-smooth-nodes="true"
     inkscape:snap-center="true">
    <inkscape:grid
       type="xygrid"
       id="grid815"
       empspacing="12" />
  </sodipodi:namedview>
  <metadata
     id="metadata5">
    <rdf:RDF>
      <cc:Work
         rdf:about="">
        <dc:format>image/svg+xml</dc:format>
        <dc:type
           rdf:resource="http://purl.org/dc/dcmitype/StillImage" />
        <dc:title></dc:title>
      </cc:Work>
    </rdf:RDF>
  </metadata>
  <g
     inkscape:label="Layer 1"
     inkscape:groupmode="layer"
     id="layer1"
     transform="translate(0,-265.24998)">
    <text
       xml:space="preserve"
       style="font-style:normal;font-variant:normal;font-weight:bold;font-stretch:normal;font-size:24.01560783px;line-height:1.25;font-family:Comfortaa;-inkscape-font-specification:'Comfortaa, Bold';font-variant-ligatures:normal;font-variant-caps:normal;font-variant-numeric:normal;font-feature-settings:normal;text-align:start;letter-spacing:0px;word-spacing:0px;writing-mode:lr-tb;text-anchor:start;fill:#80e198;fill-opacity:1;stroke:none;stroke-width:0.6003902;"
       x="4.083333"
       y="290.50308"
       id="text821"><tspan
         sodipodi:role="line"
         id="tspan819"
         x="4.083333"
         y="290.50308"
         style="font-style:normal;font-variant:normal;font-weight:bold;font-stretch:normal;font-size:24.01560783px;font-family:Comfortaa;-inkscape-font-specification:'Comfortaa, Bold';font-variant-ligatures:normal;font-variant-caps:normal;font-variant-numeric:normal;font-feature-settings:normal;text-align:start;writing-mode:lr-tb;text-anchor:start;stroke-width:0.6003902;fill:#80e198;fill-opacity:1;">M</tspan></text>
    <path
       style="color:#000000;font-style:normal;font-variant:normal;font-weight:normal;font-stretch:normal;font-size:medium;line-height:normal;font-family:sans-serif;font-variant-ligatures:normal;font-variant-position:normal;font-variant-caps:normal;font-variant-numeric:normal;font-variant-alternates:normal;font-feature-settings:normal;text-indent:0;text-align:start;text-decoration:none;text-decoration-line:none;text-decoration-style:solid;text-decoration-color:#000000;letter-spacing:normal;word-spacing:normal;text-transform:none;writing-mode:lr-tb;direction:ltr;text-orientation:mixed;dominant-baseline:auto;baseline-shift:baseline;text-anchor:start;white-space:normal;shape-padding:0;clip-rule:nonzero;display:inline;overflow:visible;visibility:visible;opacity:1;isolation:auto;mix-blend-mode:normal;color-interpolation:sRGB;color-interpolation-filters:linearRGB;solid-color:#000000;solid-opacity:1;vector-effect:none;fill:#80e198;fill-opacity:1;fill-rule:nonzero;stroke:none;stroke-width:9.61889839;stroke-linecap:square;stroke-linejoin:miter;stroke-miterlimit:4;stroke-dasharray:none;stroke-dashoffset:0;stroke-opacity:1;color-rendering:auto;image-rendering:auto;shape-rendering:auto;text-rendering:auto;enable-background:accumulate"
       d="m 60,11.996094 c -13.226558,0 -25.227407,5.387563 -33.921875,14.082031 l 6.761719,6.761719 C 39.777621,25.902063 49.372662,21.621094 60,21.621094 v -0.002 c 2.655518,-4.72e-4 4.808122,-2.153076 4.808594,-4.808594 C 64.808122,14.155029 62.655518,12.002425 60,12.001953 V 12 h 0.154297 C 60.102586,11.999835 60.051748,11.996094 60,11.996094 Z M 12,59.845703 c -1.65e-4,0.05171 -0.0039,0.102549 -0.0039,0.154297 0,0.05175 0.0037,0.102586 0.0039,0.154297 z m 96,0 v 0.308594 c 1.6e-4,-0.05171 0.004,-0.102549 0.004,-0.154297 0,-0.05175 -0.004,-0.102586 -0.004,-0.154297 z"
       transform="matrix(0.26458333,0,0,0.26458333,0,265.24998)"
       id="path829"
       inkscape:connector-curvature="0"
       sodipodi:nodetypes="sccccccccscsccccsc" />
    <path
       id="path858"
       d="m 26.858839,287.41877 c -0.0068,0.0119 -0.01268,0.024 -0.01953,0.0358 -0.0069,0.0119 -0.01446,0.0231 -0.02127,0.0348 z m -21.9970448,-12.7 -0.04085,0.0707 c 0.00681,-0.0119 0.012684,-0.024 0.019534,-0.0358 0.00685,-0.0119 0.014409,-0.023 0.021266,-0.0348 z m 1.1616808,9.01566 c 0.6718836,2.5075 2.3041169,4.75777 4.739221,6.16367 l -2.6e-4,4.5e-4 c 0.608413,0.35141 0.816877,1.12943 0.465687,1.73796 -0.35141,0.60842 -1.129426,0.81689 -1.737962,0.46569 l -2.55e-4,4.4e-4 0.035351,0.0204 c -0.011872,-0.007 -0.023995,-0.0127 -0.035851,-0.0195 -3.0306784,-1.74977 -5.067774,-4.57186 -5.9097834,-7.71428 z"
       style="color:#000000;font-style:normal;font-variant:normal;font-weight:normal;font-stretch:normal;font-size:medium;line-height:normal;font-family:sans-serif;font-variant-ligatures:normal;font-variant-position:normal;font-variant-caps:normal;font-variant-numeric:normal;font-variant-alternates:normal;font-feature-settings:normal;text-indent:0;text-align:start;text-decoration:none;text-decoration-line:none;text-decoration-style:solid;text-decoration-color:#000000;letter-spacing:normal;word-spacing:normal;text-transform:none;writing-mode:lr-tb;direction:ltr;text-orientation:mixed;dominant-baseline:auto;baseline-shift:baseline;text-anchor:start;white-space:normal;shape-padding:0;clip-rule:nonzero;display:inline;overflow:visible;visibility:visible;opacity:1;isolation:auto;mix-blend-mode:normal;color-interpolation:sRGB;color-interpolation-filters:linearRGB;solid-color:#000000;solid-opacity:1;vector-effect:none;fill:#80e198;fill-opacity:1;fill-rule:nonzero;stroke:none;stroke-width:2.54500008;stroke-linecap:square;stroke-linejoin:miter;stroke-miterlimit:4;stroke-dasharray:none;stroke-dashoffset:0;stroke-opacity:1;color-rendering:auto;image-rendering:auto;shape-rendering:auto;text-rendering:auto;enable-background:accumulate"
       inkscape:connector-curvature="0"
       sodipodi:nodetypes="csccccscccccccccscc"
       inkscape:transform-center-x="0.65576568"
       inkscape:transform-center-y="2.37079" />
    <path
       inkscape:transform-center-y="-0.03567737"
       inkscape:transform-center-x="3.1756617"
       sodipodi:nodetypes="csccccscccccccccscc"
       inkscape:connector-curvature="0"
       style="color:#000000;font-style:normal;font-variant:normal;font-weight:normal;font-stretch:normal;font-size:medium;line-height:normal;font-family:sans-serif;font-variant-ligatures:normal;font-variant-position:normal;font-variant-caps:normal;font-variant-numeric:normal;font-variant-alternates:normal;font-feature-settings:normal;text-indent:0;text-align:start;text-decoration:none;text-decoration-line:none;text-decoration-style:solid;text-decoration-color:#000000;letter-spacing:normal;word-spacing:normal;text-transform:none;writing-mode:lr-tb;direction:ltr;text-orientation:mixed;dominant-baseline:auto;baseline-shift:baseline;text-anchor:start;white-space:normal;shape-padding:0;clip-rule:nonzero;display:inline;overflow:visible;visibility:visible;opacity:1;isolation:auto;mix-blend-mode:normal;color-interpolation:sRGB;color-interpolation-filters:linearRGB;solid-color:#000000;solid-opacity:1;vector-effect:none;fill:#80e198;fill-opacity:1;fill-rule:nonzero;stroke:none;stroke-width:2.54500008;stroke-linecap:square;stroke-linejoin:miter;stroke-miterlimit:4;stroke-dasharray:none;stroke-dashoffset:0;stroke-opacity:1;color-rendering:auto;image-rendering:auto;shape-rendering:auto;text-rendering:auto;enable-background:accumulate"
       d="m 22.240392,292.06748 c -0.01184,0.007 -0.02298,0.0145 -0.03481,0.0212 -0.01192,0.007 -0.02407,0.0128 -0.03582,0.0195 z m -12.6999998,-21.99704 -0.070727,0.0408 c 0.011848,-0.007 0.022985,-0.0144 0.034817,-0.0212 0.011882,-0.007 0.023979,-0.0127 0.035817,-0.0195 z m -3.5017849,8.38863 c -0.6718817,2.5075 -0.3834612,5.27241 1.0224508,7.70751 l -4.502e-4,2.6e-4 c 0.3511961,0.60853 0.1427212,1.38655 -0.4656832,1.73796 -0.60854,0.3512 -1.3865566,0.14273 -1.7379643,-0.46569 l -4.408e-4,2.6e-4 0.020415,0.0353 c -0.00678,-0.012 -0.01443,-0.023 -0.021298,-0.0348 -1.7497595,-3.03069 -2.102891,-6.49324 -1.2608826,-9.63566 z"
       id="path860" />
    <path
       id="path862"
       d="m 15.916344,293.78416 c -0.01375,1.4e-4 -0.02715,0.001 -0.04075,9.6e-4 -0.01382,10e-5 -0.02725,-9.5e-4 -0.04077,-0.001 z m -2e-6,-25.39999 -0.08165,-3e-5 c 0.01376,-1.4e-4 0.02711,-9.8e-4 0.04075,-9.5e-4 0.01379,-1.3e-4 0.02712,9.9e-4 0.04077,10e-4 z m -7.2269497,5.51387 c -1.8356167,1.83562 -2.9682922,4.37431 -2.9682867,7.18613 h -5.199e-4 c -1.202e-4,0.7026 -0.5696748,1.27214 -1.2722734,1.27227 -0.7026111,-1.2e-4 -1.2721583,-0.56967 -1.2722763,-1.27228 h -5.117e-4 l 2.99e-5,0.0408 c 1.283e-4,-0.0138 -9.968e-4,-0.0271 -0.00104,-0.0408 8.8e-6,-3.49954 1.4254629,-6.67476 3.7258736,-8.97517 z"
       style="color:#000000;font-style:normal;font-variant:normal;font-weight:normal;font-stretch:normal;font-size:medium;line-height:normal;font-family:sans-serif;font-variant-ligatures:normal;font-variant-position:normal;font-variant-caps:normal;font-variant-numeric:normal;font-variant-alternates:normal;font-feature-settings:normal;text-indent:0;text-align:start;text-decoration:none;text-decoration-line:none;text-decoration-style:solid;text-decoration-color:#000000;letter-spacing:normal;word-spacing:normal;text-transform:none;writing-mode:lr-tb;direction:ltr;text-orientation:mixed;dominant-baseline:auto;baseline-shift:baseline;text-anchor:start;white-space:normal;shape-padding:0;clip-rule:nonzero;display:inline;overflow:visible;visibility:visible;opacity:1;isolation:auto;mix-blend-mode:normal;color-interpolation:sRGB;color-interpolation-filters:linearRGB;solid-color:#000000;solid-opacity:1;vector-effect:none;fill:#80e198;fill-opacity:1;fill-rule:nonzero;stroke:none;stroke-width:2.54500008;stroke-linecap:square;stroke-linejoin:miter;stroke-miterlimit:4;stroke-dasharray:none;stroke-dashoffset:0;stroke-opacity:1;color-rendering:auto;image-rendering:auto;shape-rendering:auto;text-rendering:auto;enable-background:accumulate"
       inkscape:connector-curvature="0"
       sodipodi:nodetypes="csccccscccccccccscc"
       inkscape:transform-center-x="6.3295676"
       inkscape:transform-center-y="-0.040834265" />
  </g>
</svg>
