<?xml version="1.0" encoding="UTF-8" standalone="no"?>
<!-- Created with Inkscape (http://www.inkscape.org/) -->

<svg
   xmlns:dc="http://purl.org/dc/elements/1.1/"
   xmlns:cc="http://creativecommons.org/ns#"
   xmlns:rdf="http://www.w3.org/1999/02/22-rdf-syntax-ns#"
   xmlns:svg="http://www.w3.org/2000/svg"
   xmlns="http://www.w3.org/2000/svg"
   xmlns:sodipodi="http://sodipodi.sourceforge.net/DTD/sodipodi-0.dtd"
   xmlns:inkscape="http://www.inkscape.org/namespaces/inkscape"
   width="120"
   height="120"
   viewBox="0 0 31.749999 31.750001"
   version="1.1"
   id="svg8"
   inkscape:version="0.92.4 (5da689c313, 2019-01-14)"
   sodipodi:docname="autoauto-manager-method.svg"
   inkscape:export-filename="C:\Users\coleh\AutoautoLanguagePlugin\AutoautoLanguagePlugin\src\main\resources\icons\autoauto-manager-method.png"
   inkscape:export-xdpi="204.8"
   inkscape:export-ydpi="204.8">
  <defs
     id="defs2" />
  <sodipodi:namedview
     id="base"
     pagecolor="#ffffff"
     bordercolor="#666666"
     borderopacity="1.0"
     inkscape:pageopacity="0"
     inkscape:pageshadow="2"
     inkscape:zoom="3.959798"
     inkscape:cx="-12.568758"
     inkscape:cy="44.579456"
     inkscape:document-units="mm"
     inkscape:current-layer="layer1"
     showgrid="true"
     units="px"
     inkscape:snap-page="true"
     inkscape:snap-bbox="false"
     inkscape:snap-bbox-midpoints="true"
     inkscape:bbox-nodes="true"
     inkscape:snap-global="true"
     inkscape:snap-grids="false"
     inkscape:snap-intersection-paths="true"
     inkscape:window-width="1920"
     inkscape:window-height="1017"
     inkscape:window-x="-8"
     inkscape:window-y="-8"
     inkscape:window-maximized="1"
     inkscape:pagecheckerboard="true"
     inkscape:snap-nodes="false"
     inkscape:object-paths="true"
     inkscape:snap-bbox-edge-midpoints="true"
     inkscape:snap-smooth-nodes="true"
     inkscape:snap-midpoints="true"
     inkscape:bbox-paths="true"
     inkscape:snap-center="true">
    <inkscape:grid
       type="xygrid"
       id="grid815"
       empspacing="12" />
  </sodipodi:namedview>
  <metadata
     id="metadata5">
    <rdf:RDF>
      <cc:Work
         rdf:about="">
        <dc:format>image/svg+xml</dc:format>
        <dc:type
           rdf:resource="http://purl.org/dc/dcmitype/StillImage" />
        <dc:title></dc:title>
      </cc:Work>
    </rdf:RDF>
  </metadata>
  <g
     inkscape:label="Layer 1"
     inkscape:groupmode="layer"
     id="layer1"
     transform="translate(0,-265.24998)">
    <path
       style="font-style:normal;font-variant:normal;font-weight:bold;font-stretch:normal;font-size:10.58333302px;line-height:1.25;font-family:Comfortaa;-inkscape-font-specification:'Comfortaa, Bold';font-variant-ligatures:normal;font-variant-caps:normal;font-variant-numeric:normal;font-feature-settings:normal;text-align:start;letter-spacing:0px;word-spacing:0px;writing-mode:lr-tb;text-anchor:start;fill:#80e198;fill-opacity:1;stroke:none;stroke-width:3.9080317;stroke-miterlimit:4;stroke-dasharray:none;stroke-opacity:1"
       d="m 60,11.419922 c -7.748431,0 -15.071644,1.842255 -21.578125,5.091797 -0.06204,0.02787 -0.120324,0.04793 -0.183594,0.07813 l -5.779297,2.757812 c -2.850054,1.360243 -5.709529,2.572091 -5.972656,5.550782 -0.0087,0.0083 -0.01867,0.01514 -0.02734,0.02344 v 7.732422 9.03125 36.628906 4.941406 4.089844 c 0,1.630148 0.639544,3.225443 1.785157,4.371094 1.145616,1.145575 2.74109,1.783203 4.36914,1.783203 1.628051,0 3.223521,-0.637628 4.369141,-1.783203 1.145688,-1.145651 1.785156,-2.740946 1.785156,-4.371094 V 56.216797 l 15.595703,31.253906 0.002,0.002 c 1.052897,2.173493 3.246853,3.603516 5.634766,3.603516 2.112151,0 4.08508,-1.171008 5.269531,-2.982422 l 0.06641,-0.101562 15.896484,-32.400391 v 36.181641 0.816406 c 0,0.813997 0.141582,1.62184 0.445312,2.371094 0.30429,0.750576 0.768175,1.428308 1.339844,2 1.14562,1.145574 2.741094,1.783203 4.369141,1.783203 1.584903,0 3.134776,-0.648586 4.263672,-1.765625 0.245185,-0.232563 0.462595,-0.489023 0.664062,-0.757813 0.0048,-0.0042 0.01086,-0.0055 0.01563,-0.0098 C 102.29371,87.306144 108.58008,74.368214 108.58008,60 108.58008,33.232894 86.767117,11.419922 60,11.419922 Z m 0,10.394531 c 8.393442,0 16.133949,2.689664 22.423828,7.248047 -0.162137,0.218714 -0.314835,0.445006 -0.451172,0.683594 l -0.03125,0.05469 -21.658203,44.523438 -21.699219,-43.470703 -0.529296,-1.060547 -0.02734,-0.04687 C 37.892119,29.509452 37.743274,29.284114 37.582031,29.068359 43.87156,24.51008 51.606874,21.814453 60,21.814453 Z M 93.541016,41.685547 C 96.503341,47.117408 98.185547,53.355225 98.185547,60 c 0,6.644223 -1.682159,12.881532 -4.644531,18.3125 z"
       transform="matrix(0.26458333,0,0,0.26458333,0,265.24998)"
       id="path818"
       inkscape:connector-curvature="0"
       inkscape:transform-center-x="-1.9895432"
       inkscape:transform-center-y="-1.3012065" />
    <path
       inkscape:transform-center-y="-1.301605"
       inkscape:transform-center-x="1.9895547"
       inkscape:connector-curvature="0"
       id="path869"
       d="m 15.875,268.2715 c 2.050106,0 3.987706,0.48743 5.709213,1.34721 0.01641,0.007 0.03184,0.0127 0.04858,0.0207 l 1.529105,0.72967 c 0.754077,0.3599 1.510646,0.68053 1.580265,1.46864 0.0023,0.002 0.0049,0.004 0.0072,0.006 v 2.04587 2.38952 9.6914 1.30741 1.08211 c 0,0.43131 -0.169213,0.8534 -0.472323,1.15652 -0.303111,0.3031 -0.725246,0.4718 -1.156001,0.4718 -0.430755,0 -0.85289,-0.1687 -1.156002,-0.4718 -0.30313,-0.30312 -0.472323,-0.72521 -0.472323,-1.15652 v -8.23619 l -4.126363,8.26926 -5.29e-4,5.3e-4 c -0.278579,0.57507 -0.859063,0.95343 -1.490865,0.95343 -0.55884,0 -1.080844,-0.30983 -1.39423,-0.7891 l -0.01757,-0.0269 -4.205945,-8.5726 v 9.57305 0.21601 c 0,0.21537 -0.03746,0.42911 -0.117822,0.62735 -0.08051,0.19859 -0.2032461,0.37791 -0.3545001,0.52917 -0.303112,0.3031 -0.725248,0.47181 -1.156002,0.47181 -0.419339,0 -0.82941,-0.17161 -1.128097,-0.46716 -0.06487,-0.0615 -0.122395,-0.12939 -0.175699,-0.2005 -0.0013,-10e-4 -0.0029,-10e-4 -0.0041,-0.003 -2.636195,-2.35606 -4.299464,-5.77922 -4.299464,-9.58081 0,-7.08213 5.771347,-12.85348 12.8534791,-12.85348 z m 0,2.75022 c -2.220764,0 -4.268773,0.71164 -5.9329711,1.91771 0.0429,0.0579 0.0833,0.11774 0.1193731,0.18087 l 0.0083,0.0145 5.7304,11.78016 5.741251,-11.50162 0.140043,-0.28061 0.0072,-0.0124 c 0.03578,-0.0626 0.07516,-0.12223 0.117823,-0.17932 -1.664104,-1.20604 -3.710739,-1.91926 -5.931421,-1.91926 z m -8.8743931,5.25756 c -0.783782,1.43718 -1.228866,3.0876 -1.228866,4.8457 0,1.75795 0.445072,3.40824 1.228866,4.84518 z"
       style="font-style:normal;font-variant:normal;font-weight:bold;font-stretch:normal;font-size:10.58333302px;line-height:1.25;font-family:Comfortaa;-inkscape-font-specification:'Comfortaa, Bold';font-variant-ligatures:normal;font-variant-caps:normal;font-variant-numeric:normal;font-feature-settings:normal;text-align:start;letter-spacing:0px;word-spacing:0px;writing-mode:lr-tb;text-anchor:start;fill:#80e198;fill-opacity:1;stroke:none;stroke-width:1.03400004;stroke-miterlimit:4;stroke-dasharray:none;stroke-opacity:1" />
  </g>
</svg>
